<svg width="356" height="76" viewBox="0 0 356 76" fill="none" xmlns="http://www.w3.org/2000/svg">
<path d="M75.917 56.744C75.917 62.262 74.3036 64.9356 69.2084 64.9356C64.1133 64.9356 62.4715 62.262 62.4715 56.744L62.4715 19.256C62.4715 13.738 64.1133 11.0644 69.2084 11.0644C74.3036 11.0644 75.917 13.738 75.917 19.256L75.917 56.744ZM88.5699 57.0569V18.9431C88.5699 8.50449 82.4558 0 69.2084 0C55.9611 0 49.8469 8.53294 49.8469 18.9431L49.8469 57.0569C49.8469 67.4955 55.9611 76 69.2084 76C82.4558 76 88.5699 67.4671 88.5699 57.0569Z" fill="white"/>
<path d="M38.1003 57.0569C38.1003 67.4955 31.9861 76 19.3615 76C6.11416 76 0 67.4671 0 57.0569L0 18.9431C0 8.50449 6.11416 0 19.3615 0C31.9861 0 38.1003 9.21557 38.1003 20.2799L38.1003 25.7126L25.5889 25.7126V20.024C25.5889 13.7949 22.7583 11.1213 19.4747 11.1213C14.3796 11.1213 12.7378 13.7949 12.7378 19.3129L12.7378 56.744C12.7378 62.262 14.3796 64.9356 19.4747 64.9356C24.0604 64.9356 25.5889 62.262 25.5889 57.4551L25.5889 48.5524H38.1003V57.0569Z" fill="white"/>
<path d="M138.246 75.2773H127.473L111.674 28.8956H111.479L111.479 75.2773H100.289L100.289 1.00366L111.785 1.00366L126.862 43.4988H127.056V1.00366L138.246 1.00366V75.2773Z" fill="white"/>
<path d="M213.162 12.1204L190.743 12.1204V31.2389H207.494V42.3557L190.743 42.3557V75.2773H178.201V1.00366L213.162 1.00366V12.1204Z" fill="white"/>
<path d="M259.11 75.2773H224.149V1.00366L257.706 1.00366V12.1204L236.673 12.1204V31.2389H252.848V42.3557L236.673 42.3557V64.1605H259.11V75.2773Z" fill="white"/>
<path d="M295.687 22.8402C295.687 31.6575 293.139 34.2174 286.317 34.2174H281.816V11.4629L286.289 11.4629C293.111 11.4629 295.658 14.0228 295.658 22.8402H295.687ZM308.311 22.8402C308.311 7.08268 301.065 1.02429 286.912 1.02429L269.164 1.02429V74.9764H281.816V44.656C283.991 44.6666 286.164 44.5622 288.327 44.3432L297.3 74.9764H310.123L299.451 41.4704C303.726 39.5363 308.311 34.7294 308.311 22.8402Z" fill="white"/>
<path d="M356 75.2773H320.041V1.00366L354.528 1.00366V12.1204L332.941 12.1204V31.2389H349.536V42.3557L332.941 42.3557V64.1605H356V75.2773Z" fill="white"/>
<path d="M165.216 1.00366L152.23 1.00366V75.2773H165.216V1.00366Z" fill="white"/>
</svg>
