<svg width="59" height="55" viewBox="0 0 59 55" fill="none" xmlns="http://www.w3.org/2000/svg">
<path d="M57.7789 27.0494L30.972 0.602331C30.779 0.411394 30.5498 0.259912 30.2974 0.156556C30.045 0.0532004 29.7745 0 29.5012 0C29.228 0 28.9574 0.0532004 28.705 0.156556C28.4527 0.259912 28.2234 0.411394 28.0304 0.602331L1.22352 27.0494C0.442551 27.8204 0 28.8678 0 29.9601C0 32.2283 1.86782 34.0724 4.16518 34.0724H6.9897L6.9897 52.9439C6.9897 54.0812 7.92036 55 9.07229 55L25.336 55V40.607H32.6251V55H49.9301C51.0821 55 52.0127 54.0812 52.0127 52.9439V34.0724H54.8373C55.9436 34.0724 57.0045 33.6419 57.7854 32.8644C59.4059 31.258 59.4059 28.6557 57.7789 27.0494Z" fill="#6D3D32"/>
</svg>
