<svg width="176" height="130" viewBox="0 0 176 130" fill="none" xmlns="http://www.w3.org/2000/svg">
<g clip-path="url(#clip0)">
<path d="M0 88.7062C0 88.7062 0 130 39.7773 130L160.742 130C160.742 130 176.051 130 176.051 114.108L176.051 0L15.3088 0C15.3088 0 0 0 0 15.8924L0 88.7062Z" fill="#6D3D32"/>
<path d="M42.5583 39.7576C42.5583 42.3269 41.8312 43.5718 39.5348 43.5718C37.2385 43.5718 36.4986 42.3269 36.4986 39.7576L36.4986 22.3024C36.4986 19.7331 37.2385 18.4882 39.5348 18.4882C41.8312 18.4882 42.5583 19.7331 42.5583 22.3024V39.7576ZM48.2609 39.9033V22.1567C48.2609 17.2963 45.5053 13.3364 39.5348 13.3364C33.5644 13.3364 30.8088 17.3095 30.8088 22.1567L30.8088 39.9033C30.8088 44.7637 33.5644 48.7235 39.5348 48.7235C45.5053 48.7235 48.2609 44.7504 48.2609 39.9033Z" fill="white"/>
<path d="M25.5146 39.9033C25.5146 44.7637 22.759 48.7235 17.0693 48.7235C11.0988 48.7235 8.34326 44.7504 8.34326 39.9033L8.34326 22.1567C8.34326 17.2963 11.0988 13.3364 17.0693 13.3364C22.759 13.3364 25.5146 17.6274 25.5146 22.7792L25.5146 25.3087L19.8759 25.3087V22.66C19.8759 19.7596 18.6001 18.5147 17.1203 18.5147C14.824 18.5147 14.0841 19.7596 14.0841 22.3289L14.0841 39.7576C14.0841 42.3269 14.824 43.5718 17.1203 43.5718C19.187 43.5718 19.8759 42.3269 19.8759 40.0887V35.9434H25.5146V39.9033Z" fill="white"/>
<path d="M70.867 48.2336H65.9172L58.6582 26.7391H58.5689L58.5689 48.2336H53.4277L53.4277 13.8132H58.7093L65.6365 33.5066H65.7258V13.8132L70.867 13.8132V48.2336Z" fill="white"/>
<path d="M104.585 18.965L94.3915 18.965V27.825H102.008V32.9768H94.3915V48.2336H88.689V13.8132L104.585 13.8132V18.965Z" fill="white"/>
<path d="M125.06 48.2336H109.177V13.8132L124.422 13.8132V18.965L114.867 18.965V27.825H122.215V32.9768H114.867V43.0818H125.06V48.2336Z" fill="white"/>
<path d="M141.606 23.9711C141.606 28.0767 140.458 29.2686 137.384 29.2686H135.355V18.6737H137.371C140.445 18.6737 141.593 19.8656 141.593 23.9711H141.606ZM147.296 23.9711C147.296 16.6341 144.03 13.8132 137.651 13.8132L129.653 13.8132V48.2468H135.355V34.129C136.335 34.134 137.314 34.0854 138.289 33.9834L142.333 48.2468H148.112L143.303 32.6458C145.229 31.7452 147.296 29.507 147.296 23.9711Z" fill="white"/>
<path d="M168.626 48.2336H152.73V13.8132L167.975 13.8132V18.965L158.433 18.965V27.825H165.768V32.9768H158.433V43.0818H168.626V48.2336Z" fill="white"/>
<path d="M82.6292 13.8132L76.9395 13.8132V48.2336H82.6292V13.8132Z" fill="white"/>
</g>
<defs>
<clipPath id="clip0">
<rect width="176" height="130" fill="white"/>
</clipPath>
</defs>
</svg>
