<svg width="25" height="48" viewBox="0 0 25 48" fill="none" xmlns="http://www.w3.org/2000/svg">
<path d="M4.33333 47.3332C3.55449 47.3347 2.79971 47.0635 2.2 46.5666C1.86247 46.2867 1.58346 45.9431 1.37896 45.5552C1.17445 45.1674 1.04846 44.743 1.00821 44.3065C0.967958 43.8699 1.01423 43.4296 1.14438 43.011C1.27453 42.5923 1.48599 42.2034 1.76667 41.8666L16.7 23.9999L2.30001 6.09988C2.02312 5.75893 1.81635 5.3666 1.69158 4.94547C1.5668 4.52434 1.52649 4.0827 1.57296 3.64594C1.61942 3.20918 1.75174 2.78591 1.96232 2.40045C2.1729 2.015 2.45758 1.67496 2.80001 1.39988C3.14489 1.09643 3.54878 0.867537 3.98632 0.727573C4.42386 0.58761 4.88561 0.539598 5.34259 0.586547C5.79956 0.633497 6.2419 0.774396 6.64185 1.0004C7.04179 1.22641 7.39069 1.53264 7.66667 1.89988L23.7667 21.8999C24.2569 22.4963 24.525 23.2445 24.525 24.0166C24.525 24.7886 24.2569 25.5368 23.7667 26.1332L7.1 46.1332C6.76561 46.5366 6.34083 46.8555 5.86013 47.064C5.37943 47.2725 4.85635 47.3647 4.33333 47.3332Z" fill="black"/>
</svg>
