<svg width="25" height="48" viewBox="0 0 25 48" fill="none" xmlns="http://www.w3.org/2000/svg">
<path d="M20.6667 0.666779C21.4455 0.665261 22.2003 0.936508 22.8 1.43345C23.1375 1.71328 23.4165 2.05695 23.621 2.44477C23.8255 2.8326 23.9515 3.25695 23.9918 3.69354C24.032 4.13013 23.9858 4.57037 23.8556 4.98905C23.7255 5.40773 23.514 5.79662 23.2333 6.13345L8.29999 24.0001L22.7 41.9001C22.9769 42.2411 23.1837 42.6334 23.3084 43.0545C23.4332 43.4757 23.4735 43.9173 23.427 44.3541C23.3806 44.7908 23.2483 45.2141 23.0377 45.5995C22.8271 45.985 22.5424 46.325 22.2 46.6001C21.8551 46.9036 21.4512 47.1325 21.0137 47.2724C20.5761 47.4124 20.1144 47.4604 19.6574 47.4135C19.2004 47.3665 18.7581 47.2256 18.3582 46.9996C17.9582 46.7736 17.6093 46.4674 17.3333 46.1001L1.23333 26.1001C0.743053 25.5037 0.475035 24.7555 0.475035 23.9835C0.475035 23.2114 0.743053 22.4632 1.23333 21.8668L17.9 1.86678C18.2344 1.46339 18.6592 1.14451 19.1399 0.936017C19.6206 0.72752 20.1436 0.635277 20.6667 0.666779Z" fill="black"/>
</svg>
